<svg class="plot" fill="currentColor" font-family="system-ui, sans-serif" font-size="10" text-anchor="middle" width="640" height="400" viewBox="0 0 640 400" xmlns="http://www.w3.org/2000/svg" xmlns:xlink="http://www.w3.org/1999/xlink">
  <style>
    :where(.plot) {
      --plot-background: white;
      display: block;
      height: auto;
      height: intrinsic;
      max-width: 100%;
    }

    :where(.plot text),
    :where(.plot tspan) {
      white-space: pre;
    }
  </style>
  <g aria-label="y-axis tick" aria-hidden="true" fill="none" stroke="currentColor" transform="translate(0,0.5)">
    <path transform="translate(40,370)" d="M0,0L-6,0"></path>
    <path transform="translate(40,338.182)" d="M0,0L-6,0"></path>
    <path transform="translate(40,306.364)" d="M0,0L-6,0"></path>
    <path transform="translate(40,274.545)" d="M0,0L-6,0"></path>
    <path transform="translate(40,242.727)" d="M0,0L-6,0"></path>
    <path transform="translate(40,210.909)" d="M0,0L-6,0"></path>
    <path transform="translate(40,179.091)" d="M0,0L-6,0"></path>
    <path transform="translate(40,147.273)" d="M0,0L-6,0"></path>
    <path transform="translate(40,115.455)" d="M0,0L-6,0"></path>
    <path transform="translate(40,83.636)" d="M0,0L-6,0"></path>
    <path transform="translate(40,51.818)" d="M0,0L-6,0"></path>
    <path transform="translate(40,20)" d="M0,0L-6,0"></path>
  </g>
  <g aria-label="y-axis tick label" text-anchor="end" font-variant="tabular-nums" transform="translate(-8.5,0.5)">
    <text transform="translate(40,370)" y="0.32em">0</text>
    <text transform="translate(40,338.182)" y="0.32em">1</text>
    <text transform="translate(40,306.364)" y="0.32em">2</text>
    <text transform="translate(40,274.545)" y="0.32em">3</text>
    <text transform="translate(40,242.727)" y="0.32em">4</text>
    <text transform="translate(40,210.909)" y="0.32em">5</text>
    <text transform="translate(40,179.091)" y="0.32em">6</text>
    <text transform="translate(40,147.273)" y="0.32em">7</text>
    <text transform="translate(40,115.455)" y="0.32em">8</text>
    <text transform="translate(40,83.636)" y="0.32em">9</text>
    <text transform="translate(40,51.818)" y="0.32em">10</text>
    <text transform="translate(40,20)" y="0.32em">11</text>
  </g>
  <g aria-label="y-axis label" text-anchor="start" transform="translate(-36.5,-16.5)">
    <text transform="translate(40,20)" y="0.71em">↑ units</text>
  </g>
  <g aria-label="x-axis tick" aria-hidden="true" fill="none" stroke="currentColor" transform="translate(237.5,0)">
    <path transform="translate(93,370)" d="M0,0L0,6"></path>
  </g>
  <g aria-label="x-axis tick label" transform="translate(237.5,9.5)">
    <text transform="translate(93,370)"><tspan x="0" y="0.71em">15</tspan><tspan x="0" dy="1em">Mar</tspan></text>
  </g>
  <g aria-label="bar">
    <rect fill="#4269d0" x="93" y="179.091" width="474" height="190.909"></rect>
    <rect fill="#ff725c" x="93" y="115.455" width="474" height="63.636"></rect>
    <rect fill="#efb118" x="93" y="20" width="474" height="95.455"></rect>
  </g>
  <g aria-label="text" transform="translate(237.5,0.5)">
    <text transform="translate(93,274.545)" y="0.32em">apples</text>
    <text transform="translate(93,147.273)" y="0.32em">oranges</text>
    <text transform="translate(93,67.727)" y="0.32em">grapes</text>
  </g>
</svg>