<svg class="plot" fill="currentColor" font-family="system-ui, sans-serif" font-size="10" text-anchor="middle" width="640" height="400" viewBox="0 0 640 400" xmlns="http://www.w3.org/2000/svg" xmlns:xlink="http://www.w3.org/1999/xlink" xmlns="http://www.w3.org/2000/svg" xmlns:xlink="http://www.w3.org/1999/xlink">
  <style>
    :where(.plot) {
      --plot-background: white;
      display: block;
      height: auto;
      height: intrinsic;
      max-width: 100%;
    }

    :where(.plot text),
    :where(.plot tspan) {
      white-space: pre;
    }
  </style>
  <g aria-label="y-axis tick" aria-hidden="true" fill="none" stroke="currentColor" transform="translate(-0.5,0)">
    <path transform="translate(40,370)" d="M0,0L-6,0"></path>
    <path transform="translate(40,338.182)" d="M0,0L-6,0"></path>
    <path transform="translate(40,306.364)" d="M0,0L-6,0"></path>
    <path transform="translate(40,274.545)" d="M0,0L-6,0"></path>
    <path transform="translate(40,242.727)" d="M0,0L-6,0"></path>
    <path transform="translate(40,210.909)" d="M0,0L-6,0"></path>
    <path transform="translate(40,179.091)" d="M0,0L-6,0"></path>
    <path transform="translate(40,147.273)" d="M0,0L-6,0"></path>
    <path transform="translate(40,115.455)" d="M0,0L-6,0"></path>
    <path transform="translate(40,83.636)" d="M0,0L-6,0"></path>
    <path transform="translate(40,51.818)" d="M0,0L-6,0"></path>
    <path transform="translate(40,20)" d="M0,0L-6,0"></path>
  </g>
  <g aria-label="y-axis tick label" text-anchor="end" font-variant="tabular-nums" transform="translate(-9,0)">
    <text transform="translate(40,370)" y="0.32em">0</text>
    <text transform="translate(40,338.182)" y="0.32em">1</text>
    <text transform="translate(40,306.364)" y="0.32em">2</text>
    <text transform="translate(40,274.545)" y="0.32em">3</text>
    <text transform="translate(40,242.727)" y="0.32em">4</text>
    <text transform="translate(40,210.909)" y="0.32em">5</text>
    <text transform="translate(40,179.091)" y="0.32em">6</text>
    <text transform="translate(40,147.273)" y="0.32em">7</text>
    <text transform="translate(40,115.455)" y="0.32em">8</text>
    <text transform="translate(40,83.636)" y="0.32em">9</text>
    <text transform="translate(40,51.818)" y="0.32em">10</text>
    <text transform="translate(40,20)" y="0.32em">11</text>
  </g>
  <g aria-label="y-axis label" text-anchor="start" transform="translate(-37,-17)">
    <text transform="translate(40,20)" y="0.71em">↑ Frequency</text>
  </g>
  <g aria-label="x-axis tick" aria-hidden="true" fill="none" stroke="currentColor" transform="translate(0,-0.5)">
    <path transform="translate(92.727,370)" d="M0,0L0,6"></path>
    <path transform="translate(198.182,370)" d="M0,0L0,6"></path>
    <path transform="translate(303.636,370)" d="M0,0L0,6"></path>
    <path transform="translate(409.091,370)" d="M0,0L0,6"></path>
    <path transform="translate(514.545,370)" d="M0,0L0,6"></path>
    <path transform="translate(620,370)" d="M0,0L0,6"></path>
  </g>
  <g aria-label="x-axis tick label" font-variant="tabular-nums" transform="translate(0,9)">
    <text transform="translate(92.727,370)" y="0.71em">14</text>
    <text transform="translate(198.182,370)" y="0.71em">16</text>
    <text transform="translate(303.636,370)" y="0.71em">18</text>
    <text transform="translate(409.091,370)" y="0.71em">20</text>
    <text transform="translate(514.545,370)" y="0.71em">22</text>
    <text transform="translate(620,370)" y="0.71em">24</text>
  </g>
  <g aria-label="rect">
    <rect x="41" y="338.182" width="51.727" height="31.818"></rect>
    <rect x="93.727" y="20" width="51.727" height="350"></rect>
    <rect x="146.455" y="51.818" width="51.727" height="318.182"></rect>
    <rect x="199.182" y="147.273" width="51.727" height="222.727"></rect>
    <rect x="251.909" y="147.273" width="51.727" height="222.727"></rect>
    <rect x="304.636" y="274.545" width="51.727" height="95.455"></rect>
    <rect x="357.364" y="147.273" width="51.727" height="222.727"></rect>
    <rect x="410.091" y="306.364" width="51.727" height="63.636"></rect>
    <rect x="462.818" y="306.364" width="51.727" height="63.636"></rect>
    <rect x="515.545" y="306.364" width="51.727" height="63.636"></rect>
    <rect x="568.273" y="274.545" width="51.727" height="95.455"></rect>
  </g>
</svg>