<svg class="plot" fill="currentColor" font-family="system-ui, sans-serif" font-size="10" text-anchor="middle" width="640" height="600" viewBox="0 0 640 600" xmlns="http://www.w3.org/2000/svg" xmlns:xlink="http://www.w3.org/1999/xlink">
  <style>
    :where(.plot) {
      --plot-background: white;
      display: block;
      height: auto;
      height: intrinsic;
      max-width: 100%;
    }

    :where(.plot text),
    :where(.plot tspan) {
      white-space: pre;
    }
  </style>
  <defs>
    <clipPath id="plot-rid-1">
      <rect x="40" y="20" width="580" height="550"></rect>
    </clipPath>
  </defs>
  <g aria-label="x-axis" transform="translate(0,570)" fill="none" font-size="10" font-variant="tabular-nums" text-anchor="middle">
    <line x1="40" x2="620" stroke="currentColor"></line>
    <g transform="translate(76.25,0)">
      <line y2="6" stroke="currentColor"></line>
      <text y="9" dy="0.71em" fill="currentColor">2</text>
    </g>
    <g transform="translate(124.583,0)">
      <line y2="6" stroke="currentColor"></line>
      <text y="9" dy="0.71em" fill="currentColor">4</text>
    </g>
    <g transform="translate(172.917,0)">
      <line y2="6" stroke="currentColor"></line>
      <text y="9" dy="0.71em" fill="currentColor">6</text>
    </g>
    <g transform="translate(221.25,0)">
      <line y2="6" stroke="currentColor"></line>
      <text y="9" dy="0.71em" fill="currentColor">8</text>
    </g>
    <g transform="translate(269.583,0)">
      <line y2="6" stroke="currentColor"></line>
      <text y="9" dy="0.71em" fill="currentColor">10</text>
    </g>
    <g transform="translate(317.917,0)">
      <line y2="6" stroke="currentColor"></line>
      <text y="9" dy="0.71em" fill="currentColor">12</text>
    </g>
    <g transform="translate(366.25,0)">
      <line y2="6" stroke="currentColor"></line>
      <text y="9" dy="0.71em" fill="currentColor">14</text>
    </g>
    <g transform="translate(414.583,0)">
      <line y2="6" stroke="currentColor"></line>
      <text y="9" dy="0.71em" fill="currentColor">16</text>
    </g>
    <g transform="translate(462.917,0)">
      <line y2="6" stroke="currentColor"></line>
      <text y="9" dy="0.71em" fill="currentColor">18</text>
    </g>
    <g transform="translate(511.25,0)">
      <line y2="6" stroke="currentColor"></line>
      <text y="9" dy="0.71em" fill="currentColor">20</text>
    </g>
    <g transform="translate(559.583,0)">
      <line y2="6" stroke="currentColor"></line>
      <text y="9" dy="0.71em" fill="currentColor">22</text>
    </g>
    <g transform="translate(607.917,0)">
      <line y2="6" stroke="currentColor"></line>
      <text y="9" dy="0.71em" fill="currentColor">24</text>
    </g>
  </g>
  <g aria-label="y-axis" transform="translate(40,0)" fill="none" font-size="10" font-variant="tabular-nums" text-anchor="end">
    <line y1="20" y2="570" stroke="currentColor"></line>
    <g transform="translate(0,26)">
      <line x2="-6" stroke="currentColor"></line>
      <text x="-9" dy="0.32em" fill="currentColor">*</text>
    </g>
    <g transform="translate(0,46)">
      <line x2="-6" stroke="currentColor"></line>
      <text x="-9" dy="0.32em" fill="currentColor">A</text>
    </g>
    <g transform="translate(0,66)">
      <line x2="-6" stroke="currentColor"></line>
      <text x="-9" dy="0.32em" fill="currentColor">B</text>
    </g>
    <g transform="translate(0,86)">
      <line x2="-6" stroke="currentColor"></line>
      <text x="-9" dy="0.32em" fill="currentColor">C</text>
    </g>
    <g transform="translate(0,106)">
      <line x2="-6" stroke="currentColor"></line>
      <text x="-9" dy="0.32em" fill="currentColor">D</text>
    </g>
    <g transform="translate(0,126)">
      <line x2="-6" stroke="currentColor"></line>
      <text x="-9" dy="0.32em" fill="currentColor">E</text>
    </g>
    <g transform="translate(0,146)">
      <line x2="-6" stroke="currentColor"></line>
      <text x="-9" dy="0.32em" fill="currentColor">F</text>
    </g>
    <g transform="translate(0,166)">
      <line x2="-6" stroke="currentColor"></line>
      <text x="-9" dy="0.32em" fill="currentColor">G</text>
    </g>
    <g transform="translate(0,186)">
      <line x2="-6" stroke="currentColor"></line>
      <text x="-9" dy="0.32em" fill="currentColor">H</text>
    </g>
    <g transform="translate(0,206)">
      <line x2="-6" stroke="currentColor"></line>
      <text x="-9" dy="0.32em" fill="currentColor">I</text>
    </g>
    <g transform="translate(0,226)">
      <line x2="-6" stroke="currentColor"></line>
      <text x="-9" dy="0.32em" fill="currentColor">J</text>
    </g>
    <g transform="translate(0,246)">
      <line x2="-6" stroke="currentColor"></line>
      <text x="-9" dy="0.32em" fill="currentColor">K</text>
    </g>
    <g transform="translate(0,266)">
      <line x2="-6" stroke="currentColor"></line>
      <text x="-9" dy="0.32em" fill="currentColor">L</text>
    </g>
    <g transform="translate(0,286)">
      <line x2="-6" stroke="currentColor"></line>
      <text x="-9" dy="0.32em" fill="currentColor">M</text>
    </g>
    <g transform="translate(0,306)">
      <line x2="-6" stroke="currentColor"></line>
      <text x="-9" dy="0.32em" fill="currentColor">N</text>
    </g>
    <g transform="translate(0,326)">
      <line x2="-6" stroke="currentColor"></line>
      <text x="-9" dy="0.32em" fill="currentColor">O</text>
    </g>
    <g transform="translate(0,346)">
      <line x2="-6" stroke="currentColor"></line>
      <text x="-9" dy="0.32em" fill="currentColor">P</text>
    </g>
    <g transform="translate(0,366)">
      <line x2="-6" stroke="currentColor"></line>
      <text x="-9" dy="0.32em" fill="currentColor">Q</text>
    </g>
    <g transform="translate(0,386)">
      <line x2="-6" stroke="currentColor"></line>
      <text x="-9" dy="0.32em" fill="currentColor">R</text>
    </g>
    <g transform="translate(0,406)">
      <line x2="-6" stroke="currentColor"></line>
      <text x="-9" dy="0.32em" fill="currentColor">S</text>
    </g>
    <g transform="translate(0,426)">
      <line x2="-6" stroke="currentColor"></line>
      <text x="-9" dy="0.32em" fill="currentColor">T</text>
    </g>
    <g transform="translate(0,446)">
      <line x2="-6" stroke="currentColor"></line>
      <text x="-9" dy="0.32em" fill="currentColor">U</text>
    </g>
    <g transform="translate(0,466)">
      <line x2="-6" stroke="currentColor"></line>
      <text x="-9" dy="0.32em" fill="currentColor">V</text>
    </g>
    <g transform="translate(0,486)">
      <line x2="-6" stroke="currentColor"></line>
      <text x="-9" dy="0.32em" fill="currentColor">W</text>
    </g>
    <g transform="translate(0,506)">
      <line x2="-6" stroke="currentColor"></line>
      <text x="-9" dy="0.32em" fill="currentColor">X</text>
    </g>
    <g transform="translate(0,526)">
      <line x2="-6" stroke="currentColor"></line>
      <text x="-9" dy="0.32em" fill="currentColor">Y</text>
    </g>
    <g transform="translate(0,546)">
      <line x2="-6" stroke="currentColor"></line>
      <text x="-9" dy="0.32em" fill="currentColor">Z</text>
    </g>
  </g>
  <g aria-label="bar" fill="currentColor">
    <rect x="40" y="86" width="580" height="18"></rect>
    <rect x="40" y="46" width="580" height="18"></rect>
    <rect x="40" y="266" width="580" height="18"></rect>
    <rect x="40" y="26" width="580" height="18"></rect>
    <rect x="40" y="286" width="580" height="18"></rect>
    <rect x="40" y="126" width="580" height="18"></rect>
    <rect x="40" y="206" width="580" height="18"></rect>
    <rect x="40" y="406" width="580" height="18"></rect>
    <rect x="40" y="186" width="580" height="18"></rect>
    <rect x="40" y="326" width="580" height="18"></rect>
    <rect x="40" y="526" width="580" height="18"></rect>
    <rect x="40" y="386" width="580" height="18"></rect>
    <rect x="40" y="166" width="580" height="18"></rect>
    <rect x="40" y="306" width="580" height="18"></rect>
    <rect x="40" y="466" width="580" height="18"></rect>
    <rect x="40" y="106" width="580" height="18"></rect>
    <rect x="40" y="486" width="580" height="18"></rect>
    <rect x="40" y="346" width="580" height="18"></rect>
    <rect x="40" y="426" width="580" height="18"></rect>
    <rect x="40" y="446" width="580" height="18"></rect>
    <rect x="40" y="66" width="580" height="18"></rect>
    <rect x="40" y="146" width="580" height="18"></rect>
    <rect x="40" y="546" width="580" height="18"></rect>
    <rect x="40" y="366" width="580" height="18"></rect>
    <rect x="40" y="246" width="580" height="18"></rect>
    <rect x="40" y="506" width="580" height="18"></rect>
    <rect x="40" y="226" width="580" height="18"></rect>
  </g>
  <g aria-label="text" fill="white" transform="translate(0,9)">
    <text x="40" y="266" dominant-baseline="central">*</text>
    <text x="40" y="126" dominant-baseline="central">*</text>
    <text x="40" y="26" dominant-baseline="central">*</text>
    <text x="40" y="406" dominant-baseline="central">*</text>
    <text x="40" y="326" dominant-baseline="central">*</text>
    <text x="40" y="386" dominant-baseline="central">*</text>
    <text x="40" y="106" dominant-baseline="central">*</text>
    <text x="40" y="486" dominant-baseline="central">*</text>
    <text x="40" y="166" dominant-baseline="central">*</text>
    <text x="40" y="526" dominant-baseline="central">*</text>
    <text x="40" y="306" dominant-baseline="central">*</text>
    <text x="40" y="426" dominant-baseline="central">*</text>
    <text x="40" y="206" dominant-baseline="central">*</text>
    <text x="40" y="46" dominant-baseline="central">*</text>
    <text x="40" y="146" dominant-baseline="central">*</text>
    <text x="40" y="286" dominant-baseline="central">*</text>
    <text x="40" y="186" dominant-baseline="central">*</text>
    <text x="40" y="346" dominant-baseline="central">*</text>
    <text x="40" y="446" dominant-baseline="central">*</text>
    <text x="40" y="246" dominant-baseline="central">*</text>
    <text x="40" y="86" dominant-baseline="central">*</text>
    <text x="40" y="506" dominant-baseline="central">*</text>
    <text x="40" y="66" dominant-baseline="central">*</text>
    <text x="64.167" y="86" dominant-baseline="central">A</text>
    <text x="64.167" y="286" dominant-baseline="central">A</text>
    <text x="64.167" y="126" dominant-baseline="central">A</text>
    <text x="64.167" y="26" dominant-baseline="central">A</text>
    <text x="64.167" y="186" dominant-baseline="central">A</text>
    <text x="64.167" y="346" dominant-baseline="central">A</text>
    <text x="64.167" y="266" dominant-baseline="central">A</text>
    <text x="64.167" y="406" dominant-baseline="central">A</text>
    <text x="64.167" y="486" dominant-baseline="central">A</text>
    <text x="64.167" y="106" dominant-baseline="central">A</text>
    <text x="64.167" y="426" dominant-baseline="central">A</text>
    <text x="64.167" y="386" dominant-baseline="central">A</text>
    <text x="64.167" y="206" dominant-baseline="central">A</text>
    <text x="64.167" y="66" dominant-baseline="central">A</text>
    <text x="64.167" y="166" dominant-baseline="central">A</text>
    <text x="64.167" y="306" dominant-baseline="central">A</text>
    <text x="64.167" y="146" dominant-baseline="central">A</text>
    <text x="40" y="466" dominant-baseline="central">A</text>
    <text x="64.167" y="326" dominant-baseline="central">A</text>
    <text x="64.167" y="246" dominant-baseline="central">A</text>
    <text x="64.167" y="526" dominant-baseline="central">A</text>
    <text x="64.167" y="446" dominant-baseline="central">A</text>
    <text x="64.167" y="506" dominant-baseline="central">A</text>
    <text x="64.167" y="46" dominant-baseline="central">B</text>
    <text x="88.333" y="286" dominant-baseline="central">B</text>
    <text x="88.333" y="26" dominant-baseline="central">B</text>
    <text x="88.333" y="206" dominant-baseline="central">B</text>
    <text x="88.333" y="446" dominant-baseline="central">B</text>
    <text x="88.333" y="326" dominant-baseline="central">B</text>
    <text x="88.333" y="66" dominant-baseline="central">B</text>
    <text x="88.333" y="526" dominant-baseline="central">B</text>
    <text x="88.333" y="386" dominant-baseline="central">B</text>
    <text x="88.333" y="306" dominant-baseline="central">B</text>
    <text x="88.333" y="126" dominant-baseline="central">C</text>
    <text x="112.5" y="206" dominant-baseline="central">C</text>
    <text x="112.5" y="26" dominant-baseline="central">C</text>
    <text x="112.5" y="386" dominant-baseline="central">C</text>
    <text x="112.5" y="446" dominant-baseline="central">C</text>
    <text x="112.5" y="306" dominant-baseline="central">C</text>
    <text x="112.5" y="326" dominant-baseline="central">C</text>
    <text x="88.333" y="46" dominant-baseline="central">C</text>
    <text x="88.333" y="86" dominant-baseline="central">C</text>
    <text x="88.333" y="406" dominant-baseline="central">C</text>
    <text x="88.333" y="426" dominant-baseline="central">C</text>
    <text x="88.333" y="266" dominant-baseline="central">C</text>
    <text x="136.667" y="306" dominant-baseline="central">D</text>
    <text x="112.5" y="266" dominant-baseline="central">D</text>
    <text x="136.667" y="26" dominant-baseline="central">D</text>
    <text x="136.667" y="326" dominant-baseline="central">D</text>
    <text x="136.667" y="386" dominant-baseline="central">D</text>
    <text x="112.5" y="126" dominant-baseline="central">D</text>
    <text x="88.333" y="486" dominant-baseline="central">D</text>
    <text x="112.5" y="46" dominant-baseline="central">D</text>
    <text x="88.333" y="106" dominant-baseline="central">D</text>
    <text x="136.667" y="206" dominant-baseline="central">D</text>
    <text x="136.667" y="446" dominant-baseline="central">D</text>
    <text x="112.5" y="286" dominant-baseline="central">E</text>
    <text x="136.667" y="46" dominant-baseline="central">E</text>
    <text x="112.5" y="526" dominant-baseline="central">E</text>
    <text x="160.833" y="306" dominant-baseline="central">E</text>
    <text x="64.167" y="466" dominant-baseline="central">E</text>
    <text x="160.833" y="386" dominant-baseline="central">E</text>
    <text x="112.5" y="406" dominant-baseline="central">E</text>
    <text x="136.667" y="266" dominant-baseline="central">E</text>
    <text x="112.5" y="426" dominant-baseline="central">E</text>
    <text x="136.667" y="126" dominant-baseline="central">E</text>
    <text x="88.333" y="186" dominant-baseline="central">E</text>
    <text x="112.5" y="66" dominant-baseline="central">E</text>
    <text x="160.833" y="26" dominant-baseline="central">E</text>
    <text x="88.333" y="346" dominant-baseline="central">E</text>
    <text x="88.333" y="166" dominant-baseline="central">E</text>
    <text x="112.5" y="106" dominant-baseline="central">E</text>
    <text x="160.833" y="206" dominant-baseline="central">E</text>
    <text x="88.333" y="246" dominant-baseline="central">E</text>
    <text x="88.333" y="146" dominant-baseline="central">E</text>
    <text x="112.5" y="86" dominant-baseline="central">E</text>
    <text x="160.833" y="326" dominant-baseline="central">E</text>
    <text x="40" y="546" dominant-baseline="central">E</text>
    <text x="112.5" y="486" dominant-baseline="central">E</text>
    <text x="88.333" y="506" dominant-baseline="central">E</text>
    <text x="160.833" y="446" dominant-baseline="central">E</text>
    <text x="185" y="326" dominant-baseline="central">F</text>
    <text x="112.5" y="146" dominant-baseline="central">F</text>
    <text x="185" y="26" dominant-baseline="central">F</text>
    <text x="160.833" y="266" dominant-baseline="central">F</text>
    <text x="160.833" y="126" dominant-baseline="central">F</text>
    <text x="185" y="206" dominant-baseline="central">F</text>
    <text x="185" y="386" dominant-baseline="central">F</text>
    <text x="160.833" y="46" dominant-baseline="central">F</text>
    <text x="185" y="446" dominant-baseline="central">F</text>
    <text x="185" y="306" dominant-baseline="central">F</text>
    <text x="136.667" y="106" dominant-baseline="central">F</text>
    <text x="136.667" y="426" dominant-baseline="central">F</text>
    <text x="136.667" y="406" dominant-baseline="central">F</text>
    <text x="136.667" y="286" dominant-baseline="central">F</text>
    <text x="185" y="46" dominant-baseline="central">G</text>
    <text x="209.167" y="306" dominant-baseline="central">G</text>
    <text x="209.167" y="446" dominant-baseline="central">G</text>
    <text x="185" y="126" dominant-baseline="central">G</text>
    <text x="209.167" y="26" dominant-baseline="central">G</text>
    <text x="209.167" y="206" dominant-baseline="central">G</text>
    <text x="112.5" y="166" dominant-baseline="central">G</text>
    <text x="160.833" y="106" dominant-baseline="central">G</text>
    <text x="209.167" y="326" dominant-baseline="central">G</text>
    <text x="136.667" y="146" dominant-baseline="central">G</text>
    <text x="160.833" y="406" dominant-baseline="central">G</text>
    <text x="185" y="406" dominant-baseline="central">H</text>
    <text x="233.333" y="26" dominant-baseline="central">H</text>
    <text x="160.833" y="426" dominant-baseline="central">H</text>
    <text x="136.667" y="166" dominant-baseline="central">H</text>
    <text x="136.667" y="486" dominant-baseline="central">H</text>
    <text x="209.167" y="126" dominant-baseline="central">H</text>
    <text x="136.667" y="86" dominant-baseline="central">H</text>
    <text x="112.5" y="346" dominant-baseline="central">H</text>
    <text x="233.333" y="306" dominant-baseline="central">H</text>
    <text x="209.167" y="386" dominant-baseline="central">H</text>
    <text x="209.167" y="46" dominant-baseline="central">H</text>
    <text x="257.5" y="26" dominant-baseline="central">I</text>
    <text x="160.833" y="286" dominant-baseline="central">I</text>
    <text x="160.833" y="86" dominant-baseline="central">I</text>
    <text x="88.333" y="466" dominant-baseline="central">I</text>
    <text x="185" y="266" dominant-baseline="central">I</text>
    <text x="112.5" y="186" dominant-baseline="central">I</text>
    <text x="185" y="426" dominant-baseline="central">I</text>
    <text x="233.333" y="46" dominant-baseline="central">I</text>
    <text x="233.333" y="386" dominant-baseline="central">I</text>
    <text x="160.833" y="146" dominant-baseline="central">I</text>
    <text x="160.833" y="486" dominant-baseline="central">I</text>
    <text x="209.167" y="406" dominant-baseline="central">I</text>
    <text x="160.833" y="166" dominant-baseline="central">I</text>
    <text x="233.333" y="446" dominant-baseline="central">I</text>
    <text x="136.667" y="346" dominant-baseline="central">I</text>
    <text x="185" y="106" dominant-baseline="central">I</text>
    <text x="112.5" y="246" dominant-baseline="central">I</text>
    <text x="233.333" y="126" dominant-baseline="central">I</text>
    <text x="257.5" y="306" dominant-baseline="central">I</text>
    <text x="233.333" y="326" dominant-baseline="central">I</text>
    <text x="136.667" y="66" dominant-baseline="central">I</text>
    <text x="136.667" y="526" dominant-baseline="central">I</text>
    <text x="112.5" y="506" dominant-baseline="central">I</text>
    <text x="281.667" y="26" dominant-baseline="central">J</text>
    <text x="281.667" y="306" dominant-baseline="central">J</text>
    <text x="257.5" y="46" dominant-baseline="central">J</text>
    <text x="305.833" y="26" dominant-baseline="central">K</text>
    <text x="185" y="86" dominant-baseline="central">K</text>
    <text x="281.667" y="46" dominant-baseline="central">K</text>
    <text x="257.5" y="326" dominant-baseline="central">K</text>
    <text x="233.333" y="206" dominant-baseline="central">K</text>
    <text x="257.5" y="386" dominant-baseline="central">K</text>
    <text x="257.5" y="126" dominant-baseline="central">K</text>
    <text x="233.333" y="406" dominant-baseline="central">K</text>
    <text x="305.833" y="306" dominant-baseline="central">K</text>
    <text x="209.167" y="266" dominant-baseline="central">K</text>
    <text x="305.833" y="46" dominant-baseline="central">L</text>
    <text x="233.333" y="266" dominant-baseline="central">L</text>
    <text x="281.667" y="126" dominant-baseline="central">L</text>
    <text x="330" y="26" dominant-baseline="central">L</text>
    <text x="209.167" y="426" dominant-baseline="central">L</text>
    <text x="257.5" y="446" dominant-baseline="central">L</text>
    <text x="257.5" y="206" dominant-baseline="central">L</text>
    <text x="281.667" y="386" dominant-baseline="central">L</text>
    <text x="160.833" y="346" dominant-baseline="central">L</text>
    <text x="64.167" y="546" dominant-baseline="central">L</text>
    <text x="281.667" y="326" dominant-baseline="central">L</text>
    <text x="185" y="146" dominant-baseline="central">L</text>
    <text x="257.5" y="406" dominant-baseline="central">L</text>
    <text x="160.833" y="66" dominant-baseline="central">L</text>
    <text x="209.167" y="86" dominant-baseline="central">L</text>
    <text x="185" y="166" dominant-baseline="central">L</text>
    <text x="330" y="306" dominant-baseline="central">L</text>
    <text x="209.167" y="106" dominant-baseline="central">L</text>
    <text x="185" y="486" dominant-baseline="central">L</text>
    <text x="136.667" y="186" dominant-baseline="central">L</text>
    <text x="354.167" y="26" dominant-baseline="central">M</text>
    <text x="160.833" y="186" dominant-baseline="central">M</text>
    <text x="305.833" y="326" dominant-baseline="central">M</text>
    <text x="281.667" y="206" dominant-baseline="central">M</text>
    <text x="330" y="46" dominant-baseline="central">M</text>
    <text x="305.833" y="126" dominant-baseline="central">M</text>
    <text x="257.5" y="266" dominant-baseline="central">M</text>
    <text x="185" y="286" dominant-baseline="central">M</text>
    <text x="281.667" y="446" dominant-baseline="central">M</text>
    <text x="281.667" y="406" dominant-baseline="central">M</text>
    <text x="305.833" y="386" dominant-baseline="central">M</text>
    <text x="209.167" y="166" dominant-baseline="central">M</text>
    <text x="233.333" y="426" dominant-baseline="central">M</text>
    <text x="354.167" y="306" dominant-baseline="central">M</text>
    <text x="378.333" y="26" dominant-baseline="central">N</text>
    <text x="305.833" y="206" dominant-baseline="central">N</text>
    <text x="330" y="326" dominant-baseline="central">N</text>
    <text x="354.167" y="46" dominant-baseline="central">N</text>
    <text x="330" y="126" dominant-baseline="central">N</text>
    <text x="305.833" y="446" dominant-baseline="central">N</text>
    <text x="136.667" y="246" dominant-baseline="central">N</text>
    <text x="209.167" y="486" dominant-baseline="central">N</text>
    <text x="330" y="386" dominant-baseline="central">N</text>
    <text x="233.333" y="166" dominant-baseline="central">N</text>
    <text x="378.333" y="306" dominant-baseline="central">N</text>
    <text x="305.833" y="406" dominant-baseline="central">N</text>
    <text x="330" y="406" dominant-baseline="central">O</text>
    <text x="257.5" y="166" dominant-baseline="central">O</text>
    <text x="185" y="186" dominant-baseline="central">O</text>
    <text x="281.667" y="266" dominant-baseline="central">O</text>
    <text x="402.5" y="26" dominant-baseline="central">O</text>
    <text x="402.5" y="306" dominant-baseline="central">O</text>
    <text x="209.167" y="286" dominant-baseline="central">O</text>
    <text x="257.5" y="426" dominant-baseline="central">O</text>
    <text x="233.333" y="486" dominant-baseline="central">O</text>
    <text x="185" y="66" dominant-baseline="central">O</text>
    <text x="330" y="206" dominant-baseline="central">O</text>
    <text x="354.167" y="386" dominant-baseline="central">O</text>
    <text x="112.5" y="466" dominant-baseline="central">O</text>
    <text x="209.167" y="146" dominant-baseline="central">O</text>
    <text x="233.333" y="86" dominant-baseline="central">O</text>
    <text x="185" y="346" dominant-baseline="central">O</text>
    <text x="354.167" y="126" dominant-baseline="central">O</text>
    <text x="354.167" y="326" dominant-baseline="central">O</text>
    <text x="160.833" y="526" dominant-baseline="central">O</text>
    <text x="233.333" y="106" dominant-baseline="central">O</text>
    <text x="40" y="226" dominant-baseline="central">O</text>
    <text x="426.667" y="26" dominant-baseline="central">P</text>
    <text x="354.167" y="406" dominant-baseline="central">P</text>
    <text x="233.333" y="286" dominant-baseline="central">P</text>
    <text x="330" y="446" dominant-baseline="central">P</text>
    <text x="185" y="526" dominant-baseline="central">P</text>
    <text x="209.167" y="346" dominant-baseline="central">P</text>
    <text x="354.167" y="206" dominant-baseline="central">P</text>
    <text x="378.333" y="126" dominant-baseline="central">P</text>
    <text x="378.333" y="326" dominant-baseline="central">P</text>
    <text x="378.333" y="386" dominant-baseline="central">P</text>
    <text x="136.667" y="506" dominant-baseline="central">P</text>
    <text x="378.333" y="46" dominant-baseline="central">P</text>
    <text x="426.667" y="306" dominant-baseline="central">P</text>
    <text x="305.833" y="266" dominant-baseline="central">P</text>
    <text x="402.5" y="126" dominant-baseline="central">Q</text>
    <text x="450.833" y="26" dominant-baseline="central">Q</text>
    <text x="402.5" y="386" dominant-baseline="central">Q</text>
    <text x="402.5" y="46" dominant-baseline="central">R</text>
    <text x="426.667" y="126" dominant-baseline="central">R</text>
    <text x="233.333" y="346" dominant-baseline="central">R</text>
    <text x="402.5" y="326" dominant-baseline="central">R</text>
    <text x="354.167" y="446" dominant-baseline="central">R</text>
    <text x="257.5" y="106" dominant-baseline="central">R</text>
    <text x="475" y="26" dominant-baseline="central">R</text>
    <text x="378.333" y="206" dominant-baseline="central">R</text>
    <text x="281.667" y="166" dominant-baseline="central">R</text>
    <text x="209.167" y="66" dominant-baseline="central">R</text>
    <text x="281.667" y="426" dominant-baseline="central">R</text>
    <text x="233.333" y="146" dominant-baseline="central">R</text>
    <text x="209.167" y="186" dominant-baseline="central">R</text>
    <text x="426.667" y="386" dominant-baseline="central">R</text>
    <text x="257.5" y="86" dominant-baseline="central">R</text>
    <text x="209.167" y="526" dominant-baseline="central">R</text>
    <text x="402.5" y="206" dominant-baseline="central">S</text>
    <text x="499.167" y="26" dominant-baseline="central">S</text>
    <text x="450.833" y="386" dominant-baseline="central">S</text>
    <text x="450.833" y="126" dominant-baseline="central">S</text>
    <text x="233.333" y="526" dominant-baseline="central">S</text>
    <text x="378.333" y="446" dominant-baseline="central">S</text>
    <text x="426.667" y="326" dominant-baseline="central">S</text>
    <text x="305.833" y="426" dominant-baseline="central">S</text>
    <text x="426.667" y="46" dominant-baseline="central">S</text>
    <text x="233.333" y="66" dominant-baseline="central">S</text>
    <text x="257.5" y="486" dominant-baseline="central">S</text>
    <text x="257.5" y="286" dominant-baseline="central">S</text>
    <text x="305.833" y="166" dominant-baseline="central">S</text>
    <text x="281.667" y="106" dominant-baseline="central">S</text>
    <text x="450.833" y="306" dominant-baseline="central">S</text>
    <text x="257.5" y="146" dominant-baseline="central">S</text>
    <text x="330" y="266" dominant-baseline="central">S</text>
    <text x="160.833" y="246" dominant-baseline="central">S</text>
    <text x="257.5" y="346" dominant-baseline="central">S</text>
    <text x="378.333" y="406" dominant-baseline="central">S</text>
    <text x="233.333" y="186" dominant-baseline="central">S</text>
    <text x="281.667" y="86" dominant-baseline="central">S</text>
    <text x="426.667" y="206" dominant-baseline="central">T</text>
    <text x="330" y="426" dominant-baseline="central">T</text>
    <text x="450.833" y="326" dominant-baseline="central">T</text>
    <text x="475" y="386" dominant-baseline="central">T</text>
    <text x="523.333" y="26" dominant-baseline="central">T</text>
    <text x="475" y="306" dominant-baseline="central">T</text>
    <text x="402.5" y="406" dominant-baseline="central">T</text>
    <text x="257.5" y="186" dominant-baseline="central">T</text>
    <text x="402.5" y="446" dominant-baseline="central">T</text>
    <text x="450.833" y="46" dominant-baseline="central">T</text>
    <text x="475" y="126" dominant-baseline="central">T</text>
    <text x="354.167" y="266" dominant-baseline="central">T</text>
    <text x="281.667" y="146" dominant-baseline="central">T</text>
    <text x="160.833" y="506" dominant-baseline="central">T</text>
    <text x="305.833" y="86" dominant-baseline="central">T</text>
    <text x="281.667" y="346" dominant-baseline="central">T</text>
    <text x="257.5" y="526" dominant-baseline="central">T</text>
    <text x="257.5" y="66" dominant-baseline="central">T</text>
    <text x="305.833" y="346" dominant-baseline="central">U</text>
    <text x="330" y="86" dominant-baseline="central">U</text>
    <text x="475" y="326" dominant-baseline="central">U</text>
    <text x="330" y="166" dominant-baseline="central">U</text>
    <text x="378.333" y="266" dominant-baseline="central">U</text>
    <text x="475" y="46" dominant-baseline="central">U</text>
    <text x="547.5" y="26" dominant-baseline="central">U</text>
    <text x="305.833" y="146" dominant-baseline="central">U</text>
    <text x="426.667" y="406" dominant-baseline="central">U</text>
    <text x="40" y="366" dominant-baseline="central">U</text>
    <text x="354.167" y="426" dominant-baseline="central">U</text>
    <text x="281.667" y="66" dominant-baseline="central">U</text>
    <text x="281.667" y="286" dominant-baseline="central">U</text>
    <text x="64.167" y="226" dominant-baseline="central">U</text>
    <text x="499.167" y="306" dominant-baseline="central">U</text>
    <text x="499.167" y="386" dominant-baseline="central">U</text>
    <text x="281.667" y="186" dominant-baseline="central">U</text>
    <text x="305.833" y="106" dominant-baseline="central">U</text>
    <text x="281.667" y="486" dominant-baseline="central">U</text>
    <text x="499.167" y="126" dominant-baseline="central">V</text>
    <text x="499.167" y="46" dominant-baseline="central">V</text>
    <text x="450.833" y="206" dominant-baseline="central">V</text>
    <text x="499.167" y="326" dominant-baseline="central">V</text>
    <text x="523.333" y="306" dominant-baseline="central">V</text>
    <text x="571.667" y="26" dominant-baseline="central">V</text>
    <text x="523.333" y="386" dominant-baseline="central">V</text>
    <text x="402.5" y="266" dominant-baseline="central">V</text>
    <text x="523.333" y="326" dominant-baseline="central">W</text>
    <text x="595.833" y="26" dominant-baseline="central">W</text>
    <text x="450.833" y="406" dominant-baseline="central">W</text>
    <text x="523.333" y="126" dominant-baseline="central">W</text>
    <text x="547.5" y="386" dominant-baseline="central">W</text>
    <text x="305.833" y="186" dominant-baseline="central">W</text>
    <text x="426.667" y="266" dominant-baseline="central">W</text>
    <text x="523.333" y="46" dominant-baseline="central">W</text>
    <text x="378.333" y="426" dominant-baseline="central">W</text>
    <text x="547.5" y="126" dominant-baseline="central">X</text>
    <text x="475" y="206" dominant-baseline="central">X</text>
    <text x="547.5" y="46" dominant-baseline="central">X</text>
    <text x="620" y="26" dominant-baseline="central">Y</text>
    <text x="450.833" y="266" dominant-baseline="central">Y</text>
    <text x="571.667" y="126" dominant-baseline="central">Y</text>
    <text x="305.833" y="286" dominant-baseline="central">Y</text>
    <text x="571.667" y="386" dominant-baseline="central">Y</text>
    <text x="571.667" y="46" dominant-baseline="central">Y</text>
    <text x="330" y="186" dominant-baseline="central">Y</text>
    <text x="402.5" y="426" dominant-baseline="central">Y</text>
    <text x="305.833" y="66" dominant-baseline="central">Y</text>
    <text x="330" y="106" dominant-baseline="central">Y</text>
    <text x="547.5" y="306" dominant-baseline="central">Y</text>
    <text x="547.5" y="326" dominant-baseline="central">Y</text>
    <text x="330" y="346" dominant-baseline="central">Y</text>
    <text x="88.333" y="546" dominant-baseline="central">Y</text>
    <text x="426.667" y="446" dominant-baseline="central">Y</text>
    <text x="354.167" y="166" dominant-baseline="central">Y</text>
    <text x="354.167" y="86" dominant-baseline="central">Y</text>
    <text x="475" y="406" dominant-baseline="central">Y</text>
    <text x="499.167" y="206" dominant-baseline="central">Z</text>
    <text x="112.5" y="546" dominant-baseline="central">Z</text>
    <text x="595.833" y="126" dominant-baseline="central">Z</text>
    <text x="595.833" y="46" dominant-baseline="central">Z</text>
  </g>
</svg>