<svg class="plot" fill="currentColor" font-family="system-ui, sans-serif" font-size="10" text-anchor="middle" width="640" height="400" viewBox="0 0 640 400" xmlns="http://www.w3.org/2000/svg" xmlns:xlink="http://www.w3.org/1999/xlink">
  <style>
    :where(.plot) {
      --plot-background: white;
      display: block;
      height: auto;
      height: intrinsic;
      max-width: 100%;
    }

    :where(.plot text),
    :where(.plot tspan) {
      white-space: pre;
    }
  </style>
  <defs>
    <clipPath id="plot-rid-1">
      <rect x="40" y="20" width="580" height="350"></rect>
    </clipPath>
  </defs>
  <g aria-label="x-axis" transform="translate(0,370)" fill="none" font-size="10" font-variant="tabular-nums" text-anchor="middle">
    <line x1="40" x2="620" stroke="currentColor"></line>
    <g transform="translate(40,0)">
      <line y2="6" stroke="currentColor"></line>
      <text y="9" dy="0.71em" fill="currentColor">0</text>
    </g>
    <g transform="translate(114.359,0)">
      <line y2="6" stroke="currentColor"></line>
      <text y="9" dy="0.71em" fill="currentColor">5</text>
    </g>
    <g transform="translate(188.718,0)">
      <line y2="6" stroke="currentColor"></line>
      <text y="9" dy="0.71em" fill="currentColor">10</text>
    </g>
    <g transform="translate(263.077,0)">
      <line y2="6" stroke="currentColor"></line>
      <text y="9" dy="0.71em" fill="currentColor">15</text>
    </g>
    <g transform="translate(337.436,0)">
      <line y2="6" stroke="currentColor"></line>
      <text y="9" dy="0.71em" fill="currentColor">20</text>
    </g>
    <g transform="translate(411.795,0)">
      <line y2="6" stroke="currentColor"></line>
      <text y="9" dy="0.71em" fill="currentColor">25</text>
    </g>
    <g transform="translate(486.154,0)">
      <line y2="6" stroke="currentColor"></line>
      <text y="9" dy="0.71em" fill="currentColor">30</text>
    </g>
    <g transform="translate(560.513,0)">
      <line y2="6" stroke="currentColor"></line>
      <text y="9" dy="0.71em" fill="currentColor">35</text>
    </g>
  </g>
  <g aria-label="y-axis" transform="translate(40,0)" fill="none" font-size="10" font-variant="tabular-nums" text-anchor="end">
    <line y1="20" y2="370" stroke="currentColor"></line>
    <g transform="translate(0,355.978)">
      <line x2="-6" stroke="currentColor"></line>
      <text x="-9" dy="0.32em" fill="currentColor">160</text>
    </g>
    <g transform="translate(0,318.009)">
      <line x2="-6" stroke="currentColor"></line>
      <text x="-9" dy="0.32em" fill="currentColor">162</text>
    </g>
    <g transform="translate(0,280.039)">
      <line x2="-6" stroke="currentColor"></line>
      <text x="-9" dy="0.32em" fill="currentColor">164</text>
    </g>
    <g transform="translate(0,242.069)">
      <line x2="-6" stroke="currentColor"></line>
      <text x="-9" dy="0.32em" fill="currentColor">166</text>
    </g>
    <g transform="translate(0,204.099)">
      <line x2="-6" stroke="currentColor"></line>
      <text x="-9" dy="0.32em" fill="currentColor">168</text>
    </g>
    <g transform="translate(0,166.129)">
      <line x2="-6" stroke="currentColor"></line>
      <text x="-9" dy="0.32em" fill="currentColor">170</text>
    </g>
    <g transform="translate(0,128.16)">
      <line x2="-6" stroke="currentColor"></line>
      <text x="-9" dy="0.32em" fill="currentColor">172</text>
    </g>
    <g transform="translate(0,90.19)">
      <line x2="-6" stroke="currentColor"></line>
      <text x="-9" dy="0.32em" fill="currentColor">174</text>
    </g>
    <g transform="translate(0,52.22)">
      <line x2="-6" stroke="currentColor"></line>
      <text x="-9" dy="0.32em" fill="currentColor">176</text>
    </g>
  </g>
  <g aria-label="line" fill="none" stroke="currentColor" stroke-width="1.5" stroke-linejoin="round" stroke-linecap="round" stroke-miterlimit="1">
    <path d="M40,124.98L54.872,116.693L69.744,110.535L84.615,109.907L99.487,97.892L114.359,87.993L129.231,73.456L144.103,66.106L158.974,52.491L173.846,41.48L188.718,30.252L203.59,22.902L218.462,20L233.333,29.194L248.205,40.449L263.077,65.428L277.949,100.903L292.821,129.19L307.692,156.664L322.564,187.176L337.436,228.969L352.308,275.537L367.179,294.711L382.051,308.923L396.923,335.502L411.795,359.016L426.667,370L441.538,359.314L456.41,318.741L471.282,293.599L486.154,261.705L501.026,218.962L515.897,182.89L530.769,151.104L545.641,115.006L560.513,89.756L575.385,71.042L590.256,61.681L605.128,51.537L620,31.432"></path>
  </g>
</svg>