<svg class="plot" fill="currentColor" font-family="system-ui, sans-serif" font-size="10" text-anchor="middle" width="640" height="400" viewBox="0 0 640 400" xmlns="http://www.w3.org/2000/svg" xmlns:xlink="http://www.w3.org/1999/xlink">
  <style>
    :where(.plot) {
      --plot-background: white;
      display: block;
      height: auto;
      height: intrinsic;
      max-width: 100%;
    }

    :where(.plot text),
    :where(.plot tspan) {
      white-space: pre;
    }
  </style>
  <g aria-label="y-axis tick" aria-hidden="true" fill="none" stroke="currentColor" transform="translate(0,0.5)">
    <path transform="translate(40,353.313)" d="M0,0L-6,0"></path>
    <path transform="translate(40,324.788)" d="M0,0L-6,0"></path>
    <path transform="translate(40,296.263)" d="M0,0L-6,0"></path>
    <path transform="translate(40,267.738)" d="M0,0L-6,0"></path>
    <path transform="translate(40,239.214)" d="M0,0L-6,0"></path>
    <path transform="translate(40,210.689)" d="M0,0L-6,0"></path>
    <path transform="translate(40,182.164)" d="M0,0L-6,0"></path>
    <path transform="translate(40,153.639)" d="M0,0L-6,0"></path>
    <path transform="translate(40,125.114)" d="M0,0L-6,0"></path>
    <path transform="translate(40,96.589)" d="M0,0L-6,0"></path>
    <path transform="translate(40,68.064)" d="M0,0L-6,0"></path>
    <path transform="translate(40,39.54)" d="M0,0L-6,0"></path>
  </g>
  <g aria-label="y-axis tick label" text-anchor="end" font-variant="tabular-nums" transform="translate(-8.5,0.5)">
    <text transform="translate(40,353.313)" y="0.32em">156</text>
    <text transform="translate(40,324.788)" y="0.32em">158</text>
    <text transform="translate(40,296.263)" y="0.32em">160</text>
    <text transform="translate(40,267.738)" y="0.32em">162</text>
    <text transform="translate(40,239.214)" y="0.32em">164</text>
    <text transform="translate(40,210.689)" y="0.32em">166</text>
    <text transform="translate(40,182.164)" y="0.32em">168</text>
    <text transform="translate(40,153.639)" y="0.32em">170</text>
    <text transform="translate(40,125.114)" y="0.32em">172</text>
    <text transform="translate(40,96.589)" y="0.32em">174</text>
    <text transform="translate(40,68.064)" y="0.32em">176</text>
    <text transform="translate(40,39.54)" y="0.32em">178</text>
  </g>
  <g aria-label="x-axis tick" aria-hidden="true" fill="none" stroke="currentColor" transform="translate(0.5,0)">
    <path transform="translate(40,370)" d="M0,0L0,6"></path>
    <path transform="translate(114.359,370)" d="M0,0L0,6"></path>
    <path transform="translate(188.718,370)" d="M0,0L0,6"></path>
    <path transform="translate(263.077,370)" d="M0,0L0,6"></path>
    <path transform="translate(337.436,370)" d="M0,0L0,6"></path>
    <path transform="translate(411.795,370)" d="M0,0L0,6"></path>
    <path transform="translate(486.154,370)" d="M0,0L0,6"></path>
    <path transform="translate(560.513,370)" d="M0,0L0,6"></path>
  </g>
  <g aria-label="x-axis tick label" font-variant="tabular-nums" transform="translate(0.5,9.5)">
    <text transform="translate(40,370)" y="0.71em">0</text>
    <text transform="translate(114.359,370)" y="0.71em">5</text>
    <text transform="translate(188.718,370)" y="0.71em">10</text>
    <text transform="translate(263.077,370)" y="0.71em">15</text>
    <text transform="translate(337.436,370)" y="0.71em">20</text>
    <text transform="translate(411.795,370)" y="0.71em">25</text>
    <text transform="translate(486.154,370)" y="0.71em">30</text>
    <text transform="translate(560.513,370)" y="0.71em">35</text>
  </g>
  <g aria-label="line" fill="none" stroke="currentColor" stroke-width="1.5" stroke-linejoin="round" stroke-linecap="round" transform="translate(0.5,0.5)">
    <path d="M40,151.357L54.872,117.555L69.744,117.412L84.615,104.576L99.487,91.597L114.359,88.745L129.231,108.57L144.103,88.174L158.974,65.497L173.846,40.966L188.718,65.925L203.59,20L218.462,30.839L233.333,49.523L248.205,49.523L263.077,50.236L277.949,89.315L292.821,125.114L307.692,151.357L322.564,217.392L337.436,198.28L352.308,194.002L367.179,210.689L382.051,309.099L396.923,370L411.795,252.192L426.667,292.127L441.538,338.052L456.41,317.657L471.282,268.452L486.154,252.905L501.026,156.634L515.897,119.98L530.769,124.401L545.641,113.276L560.513,127.967L575.385,101.296L590.256,63.073L605.128,23.851L620,21.569"></path>
  </g>
</svg>