<svg class="plot" fill="currentColor" font-family="system-ui, sans-serif" font-size="10" text-anchor="middle" width="500" height="730" viewBox="0 0 500 730" xmlns="http://www.w3.org/2000/svg" xmlns:xlink="http://www.w3.org/1999/xlink">
  <style>
    :where(.plot) {
      --plot-background: white;
      display: block;
      height: auto;
      height: intrinsic;
      max-width: 100%;
    }

    :where(.plot text),
    :where(.plot tspan) {
      white-space: pre;
    }
  </style>
  <g aria-label="x-axis tick" aria-hidden="true" fill="none" stroke="currentColor" transform="translate(0.5,0)">
    <path transform="translate(95,700)" d="M0,0L0,6"></path>
    <path transform="translate(165.2,700)" d="M0,0L0,6"></path>
    <path transform="translate(235.4,700)" d="M0,0L0,6"></path>
    <path transform="translate(305.6,700)" d="M0,0L0,6"></path>
    <path transform="translate(375.8,700)" d="M0,0L0,6"></path>
    <path transform="translate(446,700)" d="M0,0L0,6"></path>
  </g>
  <g aria-label="x-axis tick label" font-family="ui-monospace, monospace" font-variant="tabular-nums" transform="translate(0.5,9.5)">
    <text transform="translate(95,700)" y="0.71em">0</text>
    <text transform="translate(165.2,700)" y="0.71em">20</text>
    <text transform="translate(235.4,700)" y="0.71em">40</text>
    <text transform="translate(305.6,700)" y="0.71em">60</text>
    <text transform="translate(375.8,700)" y="0.71em">80</text>
    <text transform="translate(446,700)" y="0.71em">100</text>
  </g>
  <g aria-label="x-axis label" text-anchor="end" font-family="ui-monospace, monospace" transform="translate(51.5,27.5)">
    <text transform="translate(446,700)">opinion (%) →</text>
  </g>
  <g aria-label="y-axis tick" aria-hidden="true" fill="none" stroke="currentColor" transform="translate(0,7.5)">
    <path transform="translate(95,23)" d="M0,0L-6,0"></path>
    <path transform="translate(95,38)" d="M0,0L-6,0"></path>
    <path transform="translate(95,53)" d="M0,0L-6,0"></path>
    <path transform="translate(95,68)" d="M0,0L-6,0"></path>
    <path transform="translate(95,83)" d="M0,0L-6,0"></path>
    <path transform="translate(95,98)" d="M0,0L-6,0"></path>
    <path transform="translate(95,113)" d="M0,0L-6,0"></path>
    <path transform="translate(95,128)" d="M0,0L-6,0"></path>
    <path transform="translate(95,143)" d="M0,0L-6,0"></path>
    <path transform="translate(95,158)" d="M0,0L-6,0"></path>
    <path transform="translate(95,173)" d="M0,0L-6,0"></path>
    <path transform="translate(95,188)" d="M0,0L-6,0"></path>
    <path transform="translate(95,203)" d="M0,0L-6,0"></path>
    <path transform="translate(95,218)" d="M0,0L-6,0"></path>
    <path transform="translate(95,233)" d="M0,0L-6,0"></path>
    <path transform="translate(95,248)" d="M0,0L-6,0"></path>
    <path transform="translate(95,263)" d="M0,0L-6,0"></path>
    <path transform="translate(95,278)" d="M0,0L-6,0"></path>
    <path transform="translate(95,293)" d="M0,0L-6,0"></path>
    <path transform="translate(95,308)" d="M0,0L-6,0"></path>
    <path transform="translate(95,323)" d="M0,0L-6,0"></path>
    <path transform="translate(95,338)" d="M0,0L-6,0"></path>
    <path transform="translate(95,353)" d="M0,0L-6,0"></path>
    <path transform="translate(95,368)" d="M0,0L-6,0"></path>
    <path transform="translate(95,383)" d="M0,0L-6,0"></path>
    <path transform="translate(95,398)" d="M0,0L-6,0"></path>
    <path transform="translate(95,413)" d="M0,0L-6,0"></path>
    <path transform="translate(95,428)" d="M0,0L-6,0"></path>
    <path transform="translate(95,443)" d="M0,0L-6,0"></path>
    <path transform="translate(95,458)" d="M0,0L-6,0"></path>
    <path transform="translate(95,473)" d="M0,0L-6,0"></path>
    <path transform="translate(95,488)" d="M0,0L-6,0"></path>
    <path transform="translate(95,503)" d="M0,0L-6,0"></path>
    <path transform="translate(95,518)" d="M0,0L-6,0"></path>
    <path transform="translate(95,533)" d="M0,0L-6,0"></path>
    <path transform="translate(95,548)" d="M0,0L-6,0"></path>
    <path transform="translate(95,563)" d="M0,0L-6,0"></path>
    <path transform="translate(95,578)" d="M0,0L-6,0"></path>
    <path transform="translate(95,593)" d="M0,0L-6,0"></path>
    <path transform="translate(95,608)" d="M0,0L-6,0"></path>
    <path transform="translate(95,623)" d="M0,0L-6,0"></path>
    <path transform="translate(95,638)" d="M0,0L-6,0"></path>
    <path transform="translate(95,653)" d="M0,0L-6,0"></path>
    <path transform="translate(95,668)" d="M0,0L-6,0"></path>
    <path transform="translate(95,683)" d="M0,0L-6,0"></path>
  </g>
  <g aria-label="y-axis tick label" text-anchor="end" font-family="ui-monospace, monospace" transform="translate(-8.5,7.5)">
    <text transform="translate(95,23)" y="0.32em">George W…<title>George Washington</title></text>
    <text transform="translate(95,38)" y="0.32em">John Ada…<title>John Adams</title></text>
    <text transform="translate(95,53)" y="0.32em">Thomas J…<title>Thomas Jefferson</title></text>
    <text transform="translate(95,68)" y="0.32em">James Ma…<title>James Madison</title></text>
    <text transform="translate(95,83)" y="0.32em">James Mo…<title>James Monroe</title></text>
    <text transform="translate(95,98)" y="0.32em">John Qui…<title>John Quincy Adams</title></text>
    <text transform="translate(95,113)" y="0.32em">Andrew J…<title>Andrew Jackson</title></text>
    <text transform="translate(95,128)" y="0.32em">Martin V…<title>Martin Van Buren</title></text>
    <text transform="translate(95,143)" y="0.32em">William…<title>William Henry Harrison</title></text>
    <text transform="translate(95,158)" y="0.32em">John Tyl…<title>John Tyler</title></text>
    <text transform="translate(95,173)" y="0.32em">James K.…<title>James K. Polk</title></text>
    <text transform="translate(95,188)" y="0.32em">Zachary…<title>Zachary Taylor</title></text>
    <text transform="translate(95,203)" y="0.32em">Millard…<title>Millard Fillmore</title></text>
    <text transform="translate(95,218)" y="0.32em">Franklin…<title>Franklin Pierce</title></text>
    <text transform="translate(95,233)" y="0.32em">James Bu…<title>James Buchanan</title></text>
    <text transform="translate(95,248)" y="0.32em">Abraham…<title>Abraham Lincoln</title></text>
    <text transform="translate(95,263)" y="0.32em">Andrew J…<title>Andrew Johnson</title></text>
    <text transform="translate(95,278)" y="0.32em">Ulysses…<title>Ulysses S. Grant</title></text>
    <text transform="translate(95,293)" y="0.32em">Rutherfo…<title>Rutherford B. Hayes</title></text>
    <text transform="translate(95,308)" y="0.32em">James A.…<title>James A. Garfield</title></text>
    <text transform="translate(95,323)" y="0.32em">Chester…<title>Chester A. Arthur</title></text>
    <text transform="translate(95,338)" y="0.32em">Grover C…<title>Grover Cleveland</title></text>
    <text transform="translate(95,353)" y="0.32em">Benjamin…<title>Benjamin Harrison</title></text>
    <text transform="translate(95,368)" y="0.32em">William…<title>William McKinley</title></text>
    <text transform="translate(95,383)" y="0.32em">Theodore…<title>Theodore Roosevelt</title></text>
    <text transform="translate(95,398)" y="0.32em">William…<title>William Howard Taft</title></text>
    <text transform="translate(95,413)" y="0.32em">Woodrow…<title>Woodrow Wilson</title></text>
    <text transform="translate(95,428)" y="0.32em">Warren G…<title>Warren G. Harding</title></text>
    <text transform="translate(95,443)" y="0.32em">Calvin C…<title>Calvin Coolidge</title></text>
    <text transform="translate(95,458)" y="0.32em">Herbert…<title>Herbert Hoover</title></text>
    <text transform="translate(95,473)" y="0.32em">Franklin…<title>Franklin D. Roosevelt</title></text>
    <text transform="translate(95,488)" y="0.32em">Harry S.…<title>Harry S. Truman</title></text>
    <text transform="translate(95,503)" y="0.32em">Dwight D…<title>Dwight D. Eisenhower</title></text>
    <text transform="translate(95,518)" y="0.32em">John F.…<title>John F. Kennedy</title></text>
    <text transform="translate(95,533)" y="0.32em">Lyndon B…<title>Lyndon B. Johnson</title></text>
    <text transform="translate(95,548)" y="0.32em">Richard…<title>Richard Nixon</title></text>
    <text transform="translate(95,563)" y="0.32em">Gerald F…<title>Gerald Ford</title></text>
    <text transform="translate(95,578)" y="0.32em">Jimmy Ca…<title>Jimmy Carter</title></text>
    <text transform="translate(95,593)" y="0.32em">Ronald R…<title>Ronald Reagan</title></text>
    <text transform="translate(95,608)" y="0.32em">George H…<title>George H. W. Bush</title></text>
    <text transform="translate(95,623)" y="0.32em">Bill Cli…<title>Bill Clinton</title></text>
    <text transform="translate(95,638)" y="0.32em">George W…<title>George W. Bush</title></text>
    <text transform="translate(95,653)" y="0.32em">Barack O…<title>Barack Obama</title></text>
    <text transform="translate(95,668)" y="0.32em">Donald T…<title>Donald Trump</title></text>
    <text transform="translate(95,683)" y="0.32em">Joe Biden</text>
  </g>
  <g aria-label="y-axis label" font-family="ui-monospace, monospace" transform="translate(-91.5,0.5)">
    <text transform="translate(95,360) rotate(-90)" y="0.71em">President</text>
  </g>
  <g aria-label="y-axis tick label" text-anchor="start" font-family="ui-monospace, monospace" transform="translate(9.5,7.5)">
    <text transform="translate(446,23)" y="0.32em">1789</text>
    <text transform="translate(446,38)" y="0.32em">1797</text>
    <text transform="translate(446,53)" y="0.32em">1801</text>
    <text transform="translate(446,68)" y="0.32em">1809</text>
    <text transform="translate(446,83)" y="0.32em">1817</text>
    <text transform="translate(446,98)" y="0.32em">1825</text>
    <text transform="translate(446,113)" y="0.32em">1829</text>
    <text transform="translate(446,128)" y="0.32em">1837</text>
    <text transform="translate(446,143)" y="0.32em">1841</text>
    <text transform="translate(446,158)" y="0.32em">1841</text>
    <text transform="translate(446,173)" y="0.32em">1845</text>
    <text transform="translate(446,188)" y="0.32em">1849</text>
    <text transform="translate(446,203)" y="0.32em">1850</text>
    <text transform="translate(446,218)" y="0.32em">1853</text>
    <text transform="translate(446,233)" y="0.32em">1857</text>
    <text transform="translate(446,248)" y="0.32em">1861</text>
    <text transform="translate(446,263)" y="0.32em">1865</text>
    <text transform="translate(446,278)" y="0.32em">1869</text>
    <text transform="translate(446,293)" y="0.32em">1877</text>
    <text transform="translate(446,308)" y="0.32em">1881</text>
    <text transform="translate(446,323)" y="0.32em">1881</text>
    <text transform="translate(446,338)" y="0.32em">1885</text>
    <text transform="translate(446,353)" y="0.32em">1889</text>
    <text transform="translate(446,368)" y="0.32em">1897</text>
    <text transform="translate(446,383)" y="0.32em">1901</text>
    <text transform="translate(446,398)" y="0.32em">1909</text>
    <text transform="translate(446,413)" y="0.32em">1913</text>
    <text transform="translate(446,428)" y="0.32em">1921</text>
    <text transform="translate(446,443)" y="0.32em">1923</text>
    <text transform="translate(446,458)" y="0.32em">1929</text>
    <text transform="translate(446,473)" y="0.32em">1933</text>
    <text transform="translate(446,488)" y="0.32em">1945</text>
    <text transform="translate(446,503)" y="0.32em">1953</text>
    <text transform="translate(446,518)" y="0.32em">1961</text>
    <text transform="translate(446,533)" y="0.32em">1963</text>
    <text transform="translate(446,548)" y="0.32em">1969</text>
    <text transform="translate(446,563)" y="0.32em">1974</text>
    <text transform="translate(446,578)" y="0.32em">1977</text>
    <text transform="translate(446,593)" y="0.32em">1981</text>
    <text transform="translate(446,608)" y="0.32em">1989</text>
    <text transform="translate(446,623)" y="0.32em">1993</text>
    <text transform="translate(446,638)" y="0.32em">2001</text>
    <text transform="translate(446,653)" y="0.32em">2009</text>
    <text transform="translate(446,668)" y="0.32em">2017</text>
    <text transform="translate(446,683)" y="0.32em">2021</text>
  </g>
  <g aria-label="y-axis label" font-family="ui-monospace, monospace" transform="translate(51.5,0.5)">
    <text transform="translate(446,360) rotate(-90)">First inauguration date</text>
  </g>
  <g aria-label="bar">
    <rect fill="#d73027" x="95" y="23" width="13.901" height="14"><title>Very Unfavorable 4%</title></rect>
    <rect fill="#fc8d59" x="108.901" y="23" width="20.851" height="14"><title>Somewhat Unfavorable 6%</title></rect>
    <rect fill="#fee090" x="129.752" y="23" width="62.554" height="14"><title>Don’t know 18%</title></rect>
    <rect fill="#e0f3f8" x="192.307" y="23" width="10.426" height="14"><title>Have not heard of them 3%</title></rect>
    <rect fill="#91bfdb" x="202.733" y="23" width="90.356" height="14"><title>Somewhat Favorable 26%</title></rect>
    <rect fill="#4575b4" x="293.089" y="23" width="152.911" height="14"><title>Very Favorable 44%</title></rect>
    <rect fill="#d73027" x="95" y="38" width="14.182" height="14"><title>Very Unfavorable 4%</title></rect>
    <rect fill="#fc8d59" x="109.182" y="38" width="24.818" height="14"><title>Somewhat Unfavorable 7%</title></rect>
    <rect fill="#fee090" x="134" y="38" width="131.182" height="14"><title>Don’t know 37%</title></rect>
    <rect fill="#e0f3f8" x="265.182" y="38" width="17.727" height="14"><title>Have not heard of them 5%</title></rect>
    <rect fill="#91bfdb" x="282.909" y="38" width="106.364" height="14"><title>Somewhat Favorable 30%</title></rect>
    <rect fill="#4575b4" x="389.273" y="38" width="56.727" height="14"><title>Very Favorable 16%</title></rect>
    <rect fill="#d73027" x="95" y="53" width="17.376" height="14"><title>Very Unfavorable 5%</title></rect>
    <rect fill="#fc8d59" x="112.376" y="53" width="34.752" height="14"><title>Somewhat Unfavorable 10%</title></rect>
    <rect fill="#fee090" x="147.129" y="53" width="79.931" height="14"><title>Don’t know 23%</title></rect>
    <rect fill="#e0f3f8" x="227.059" y="53" width="3.475" height="14"><title>Have not heard of them 1%</title></rect>
    <rect fill="#91bfdb" x="230.535" y="53" width="118.158" height="14"><title>Somewhat Favorable 34%</title></rect>
    <rect fill="#4575b4" x="348.693" y="53" width="97.307" height="14"><title>Very Favorable 28%</title></rect>
    <rect fill="#d73027" x="95" y="68" width="14.04" height="14"><title>Very Unfavorable 4%</title></rect>
    <rect fill="#fc8d59" x="109.04" y="68" width="17.55" height="14"><title>Somewhat Unfavorable 5%</title></rect>
    <rect fill="#fee090" x="126.59" y="68" width="150.93" height="14"><title>Don’t know 43%</title></rect>
    <rect fill="#e0f3f8" x="277.52" y="68" width="31.59" height="14"><title>Have not heard of them 9%</title></rect>
    <rect fill="#91bfdb" x="309.11" y="68" width="94.77" height="14"><title>Somewhat Favorable 27%</title></rect>
    <rect fill="#4575b4" x="403.88" y="68" width="42.12" height="14"><title>Very Favorable 12%</title></rect>
    <rect fill="#d73027" x="95" y="83" width="14.04" height="14"><title>Very Unfavorable 4%</title></rect>
    <rect fill="#fc8d59" x="109.04" y="83" width="28.08" height="14"><title>Somewhat Unfavorable 8%</title></rect>
    <rect fill="#fee090" x="137.12" y="83" width="171.99" height="14"><title>Don’t know 49%</title></rect>
    <rect fill="#e0f3f8" x="309.11" y="83" width="35.1" height="14"><title>Have not heard of them 10%</title></rect>
    <rect fill="#91bfdb" x="344.21" y="83" width="73.71" height="14"><title>Somewhat Favorable 21%</title></rect>
    <rect fill="#4575b4" x="417.92" y="83" width="28.08" height="14"><title>Very Favorable 8%</title></rect>
    <rect fill="#d73027" x="95" y="98" width="14.04" height="14"><title>Very Unfavorable 4%</title></rect>
    <rect fill="#fc8d59" x="109.04" y="98" width="17.55" height="14"><title>Somewhat Unfavorable 5%</title></rect>
    <rect fill="#fee090" x="126.59" y="98" width="143.91" height="14"><title>Don’t know 41%</title></rect>
    <rect fill="#e0f3f8" x="270.5" y="98" width="21.06" height="14"><title>Have not heard of them 6%</title></rect>
    <rect fill="#91bfdb" x="291.56" y="98" width="108.81" height="14"><title>Somewhat Favorable 31%</title></rect>
    <rect fill="#4575b4" x="400.37" y="98" width="45.63" height="14"><title>Very Favorable 13%</title></rect>
    <rect fill="#d73027" x="95" y="113" width="59.67" height="14"><title>Very Unfavorable 17%</title></rect>
    <rect fill="#fc8d59" x="154.67" y="113" width="42.12" height="14"><title>Somewhat Unfavorable 12%</title></rect>
    <rect fill="#fee090" x="196.79" y="113" width="112.32" height="14"><title>Don’t know 32%</title></rect>
    <rect fill="#e0f3f8" x="309.11" y="113" width="17.55" height="14"><title>Have not heard of them 5%</title></rect>
    <rect fill="#91bfdb" x="326.66" y="113" width="80.73" height="14"><title>Somewhat Favorable 23%</title></rect>
    <rect fill="#4575b4" x="407.39" y="113" width="38.61" height="14"><title>Very Favorable 11%</title></rect>
    <rect fill="#d73027" x="95" y="128" width="13.901" height="14"><title>Very Unfavorable 4%</title></rect>
    <rect fill="#fc8d59" x="108.901" y="128" width="34.752" height="14"><title>Somewhat Unfavorable 10%</title></rect>
    <rect fill="#fee090" x="143.653" y="128" width="187.663" height="14"><title>Don’t know 54%</title></rect>
    <rect fill="#e0f3f8" x="331.317" y="128" width="62.554" height="14"><title>Have not heard of them 18%</title></rect>
    <rect fill="#91bfdb" x="393.871" y="128" width="41.703" height="14"><title>Somewhat Favorable 12%</title></rect>
    <rect fill="#4575b4" x="435.574" y="128" width="10.426" height="14"><title>Very Favorable 3%</title></rect>
    <rect fill="#d73027" x="95" y="143" width="17.376" height="14"><title>Very Unfavorable 5%</title></rect>
    <rect fill="#fc8d59" x="112.376" y="143" width="31.277" height="14"><title>Somewhat Unfavorable 9%</title></rect>
    <rect fill="#fee090" x="143.653" y="143" width="191.139" height="14"><title>Don’t know 55%</title></rect>
    <rect fill="#e0f3f8" x="334.792" y="143" width="48.653" height="14"><title>Have not heard of them 14%</title></rect>
    <rect fill="#91bfdb" x="383.446" y="143" width="52.129" height="14"><title>Somewhat Favorable 15%</title></rect>
    <rect fill="#4575b4" x="435.574" y="143" width="10.426" height="14"><title>Very Favorable 3%</title></rect>
    <rect fill="#d73027" x="95" y="158" width="14.04" height="14"><title>Very Unfavorable 4%</title></rect>
    <rect fill="#fc8d59" x="109.04" y="158" width="35.1" height="14"><title>Somewhat Unfavorable 10%</title></rect>
    <rect fill="#fee090" x="144.14" y="158" width="179.01" height="14"><title>Don’t know 51%</title></rect>
    <rect fill="#e0f3f8" x="323.15" y="158" width="73.71" height="14"><title>Have not heard of them 21%</title></rect>
    <rect fill="#91bfdb" x="396.86" y="158" width="38.61" height="14"><title>Somewhat Favorable 11%</title></rect>
    <rect fill="#4575b4" x="435.47" y="158" width="10.53" height="14"><title>Very Favorable 3%</title></rect>
    <rect fill="#d73027" x="95" y="173" width="27.802" height="14"><title>Very Unfavorable 8%</title></rect>
    <rect fill="#fc8d59" x="122.802" y="173" width="31.277" height="14"><title>Somewhat Unfavorable 9%</title></rect>
    <rect fill="#fee090" x="154.079" y="173" width="191.139" height="14"><title>Don’t know 55%</title></rect>
    <rect fill="#e0f3f8" x="345.218" y="173" width="45.178" height="14"><title>Have not heard of them 13%</title></rect>
    <rect fill="#91bfdb" x="390.396" y="173" width="41.703" height="14"><title>Somewhat Favorable 12%</title></rect>
    <rect fill="#4575b4" x="432.099" y="173" width="13.901" height="14"><title>Very Favorable 4%</title></rect>
    <rect fill="#d73027" x="95" y="188" width="10.53" height="14"><title>Very Unfavorable 3%</title></rect>
    <rect fill="#fc8d59" x="105.53" y="188" width="35.1" height="14"><title>Somewhat Unfavorable 10%</title></rect>
    <rect fill="#fee090" x="140.63" y="188" width="186.03" height="14"><title>Don’t know 53%</title></rect>
    <rect fill="#e0f3f8" x="326.66" y="188" width="63.18" height="14"><title>Have not heard of them 18%</title></rect>
    <rect fill="#91bfdb" x="389.84" y="188" width="49.14" height="14"><title>Somewhat Favorable 14%</title></rect>
    <rect fill="#4575b4" x="438.98" y="188" width="7.02" height="14"><title>Very Favorable 2%</title></rect>
    <rect fill="#d73027" x="95" y="203" width="17.727" height="14"><title>Very Unfavorable 5%</title></rect>
    <rect fill="#fc8d59" x="112.727" y="203" width="31.909" height="14"><title>Somewhat Unfavorable 9%</title></rect>
    <rect fill="#fee090" x="144.636" y="203" width="187.909" height="14"><title>Don’t know 53%</title></rect>
    <rect fill="#e0f3f8" x="332.545" y="203" width="74.455" height="14"><title>Have not heard of them 21%</title></rect>
    <rect fill="#91bfdb" x="407" y="203" width="35.455" height="14"><title>Somewhat Favorable 10%</title></rect>
    <rect fill="#4575b4" x="442.455" y="203" width="3.545" height="14"><title>Very Favorable 1%</title></rect>
    <rect fill="#d73027" x="95" y="218" width="17.376" height="14"><title>Very Unfavorable 5%</title></rect>
    <rect fill="#fc8d59" x="112.376" y="218" width="34.752" height="14"><title>Somewhat Unfavorable 10%</title></rect>
    <rect fill="#fee090" x="147.129" y="218" width="184.188" height="14"><title>Don’t know 53%</title></rect>
    <rect fill="#e0f3f8" x="331.317" y="218" width="62.554" height="14"><title>Have not heard of them 18%</title></rect>
    <rect fill="#91bfdb" x="393.871" y="218" width="41.703" height="14"><title>Somewhat Favorable 12%</title></rect>
    <rect fill="#4575b4" x="435.574" y="218" width="10.426" height="14"><title>Very Favorable 3%</title></rect>
    <rect fill="#d73027" x="95" y="233" width="30.971" height="14"><title>Very Unfavorable 9%</title></rect>
    <rect fill="#fc8d59" x="125.971" y="233" width="41.294" height="14"><title>Somewhat Unfavorable 12%</title></rect>
    <rect fill="#fee090" x="167.265" y="233" width="178.941" height="14"><title>Don’t know 52%</title></rect>
    <rect fill="#e0f3f8" x="346.206" y="233" width="48.176" height="14"><title>Have not heard of them 14%</title></rect>
    <rect fill="#91bfdb" x="394.382" y="233" width="41.294" height="14"><title>Somewhat Favorable 12%</title></rect>
    <rect fill="#4575b4" x="435.676" y="233" width="10.324" height="14"><title>Very Favorable 3%</title></rect>
    <rect fill="#d73027" x="95" y="248" width="10.426" height="14"><title>Very Unfavorable 3%</title></rect>
    <rect fill="#fc8d59" x="105.426" y="248" width="20.851" height="14"><title>Somewhat Unfavorable 6%</title></rect>
    <rect fill="#fee090" x="126.277" y="248" width="38.228" height="14"><title>Don’t know 11%</title></rect>
    <rect fill="#e0f3f8" x="164.505" y="248" width="3.475" height="14"><title>Have not heard of them 1%</title></rect>
    <rect fill="#91bfdb" x="167.98" y="248" width="83.406" height="14"><title>Somewhat Favorable 24%</title></rect>
    <rect fill="#4575b4" x="251.386" y="248" width="194.614" height="14"><title>Very Favorable 56%</title></rect>
    <rect fill="#d73027" x="95" y="263" width="42.545" height="14"><title>Very Unfavorable 12%</title></rect>
    <rect fill="#fc8d59" x="137.545" y="263" width="46.091" height="14"><title>Somewhat Unfavorable 13%</title></rect>
    <rect fill="#fee090" x="183.636" y="263" width="152.455" height="14"><title>Don’t know 43%</title></rect>
    <rect fill="#e0f3f8" x="336.091" y="263" width="28.364" height="14"><title>Have not heard of them 8%</title></rect>
    <rect fill="#91bfdb" x="364.455" y="263" width="60.273" height="14"><title>Somewhat Favorable 17%</title></rect>
    <rect fill="#4575b4" x="424.727" y="263" width="21.273" height="14"><title>Very Favorable 6%</title></rect>
    <rect fill="#d73027" x="95" y="278" width="21.06" height="14"><title>Very Unfavorable 6%</title></rect>
    <rect fill="#fc8d59" x="116.06" y="278" width="31.59" height="14"><title>Somewhat Unfavorable 9%</title></rect>
    <rect fill="#fee090" x="147.65" y="278" width="119.34" height="14"><title>Don’t know 34%</title></rect>
    <rect fill="#e0f3f8" x="266.99" y="278" width="24.57" height="14"><title>Have not heard of them 7%</title></rect>
    <rect fill="#91bfdb" x="291.56" y="278" width="105.3" height="14"><title>Somewhat Favorable 30%</title></rect>
    <rect fill="#4575b4" x="396.86" y="278" width="49.14" height="14"><title>Very Favorable 14%</title></rect>
    <rect fill="#d73027" x="95" y="293" width="21.06" height="14"><title>Very Unfavorable 6%</title></rect>
    <rect fill="#fc8d59" x="116.06" y="293" width="31.59" height="14"><title>Somewhat Unfavorable 9%</title></rect>
    <rect fill="#fee090" x="147.65" y="293" width="189.54" height="14"><title>Don’t know 54%</title></rect>
    <rect fill="#e0f3f8" x="337.19" y="293" width="45.63" height="14"><title>Have not heard of them 13%</title></rect>
    <rect fill="#91bfdb" x="382.82" y="293" width="49.14" height="14"><title>Somewhat Favorable 14%</title></rect>
    <rect fill="#4575b4" x="431.96" y="293" width="14.04" height="14"><title>Very Favorable 4%</title></rect>
    <rect fill="#d73027" x="95" y="308" width="17.55" height="14"><title>Very Unfavorable 5%</title></rect>
    <rect fill="#fc8d59" x="112.55" y="308" width="31.59" height="14"><title>Somewhat Unfavorable 9%</title></rect>
    <rect fill="#fee090" x="144.14" y="308" width="189.54" height="14"><title>Don’t know 54%</title></rect>
    <rect fill="#e0f3f8" x="333.68" y="308" width="42.12" height="14"><title>Have not heard of them 12%</title></rect>
    <rect fill="#91bfdb" x="375.8" y="308" width="56.16" height="14"><title>Somewhat Favorable 16%</title></rect>
    <rect fill="#4575b4" x="431.96" y="308" width="14.04" height="14"><title>Very Favorable 4%</title></rect>
    <rect fill="#d73027" x="95" y="323" width="17.376" height="14"><title>Very Unfavorable 5%</title></rect>
    <rect fill="#fc8d59" x="112.376" y="323" width="27.802" height="14"><title>Somewhat Unfavorable 8%</title></rect>
    <rect fill="#fee090" x="140.178" y="323" width="166.812" height="14"><title>Don’t know 48%</title></rect>
    <rect fill="#e0f3f8" x="306.99" y="323" width="93.832" height="14"><title>Have not heard of them 27%</title></rect>
    <rect fill="#91bfdb" x="400.822" y="323" width="34.752" height="14"><title>Somewhat Favorable 10%</title></rect>
    <rect fill="#4575b4" x="435.574" y="323" width="10.426" height="14"><title>Very Favorable 3%</title></rect>
    <rect fill="#d73027" x="95" y="338" width="21.06" height="14"><title>Very Unfavorable 6%</title></rect>
    <rect fill="#fc8d59" x="116.06" y="338" width="42.12" height="14"><title>Somewhat Unfavorable 12%</title></rect>
    <rect fill="#fee090" x="158.18" y="338" width="164.97" height="14"><title>Don’t know 47%</title></rect>
    <rect fill="#e0f3f8" x="323.15" y="338" width="49.14" height="14"><title>Have not heard of them 14%</title></rect>
    <rect fill="#91bfdb" x="372.29" y="338" width="59.67" height="14"><title>Somewhat Favorable 17%</title></rect>
    <rect fill="#4575b4" x="431.96" y="338" width="14.04" height="14"><title>Very Favorable 4%</title></rect>
    <rect fill="#d73027" x="95" y="353" width="14.182" height="14"><title>Very Unfavorable 4%</title></rect>
    <rect fill="#fc8d59" x="109.182" y="353" width="35.455" height="14"><title>Somewhat Unfavorable 10%</title></rect>
    <rect fill="#fee090" x="144.636" y="353" width="191.455" height="14"><title>Don’t know 54%</title></rect>
    <rect fill="#e0f3f8" x="336.091" y="353" width="53.182" height="14"><title>Have not heard of them 15%</title></rect>
    <rect fill="#91bfdb" x="389.273" y="353" width="46.091" height="14"><title>Somewhat Favorable 13%</title></rect>
    <rect fill="#4575b4" x="435.364" y="353" width="10.636" height="14"><title>Very Favorable 3%</title></rect>
    <rect fill="#d73027" x="95" y="368" width="14.04" height="14"><title>Very Unfavorable 4%</title></rect>
    <rect fill="#fc8d59" x="109.04" y="368" width="38.61" height="14"><title>Somewhat Unfavorable 11%</title></rect>
    <rect fill="#fee090" x="147.65" y="368" width="186.03" height="14"><title>Don’t know 53%</title></rect>
    <rect fill="#e0f3f8" x="333.68" y="368" width="49.14" height="14"><title>Have not heard of them 14%</title></rect>
    <rect fill="#91bfdb" x="382.82" y="368" width="56.16" height="14"><title>Somewhat Favorable 16%</title></rect>
    <rect fill="#4575b4" x="438.98" y="368" width="7.02" height="14"><title>Very Favorable 2%</title></rect>
    <rect fill="#d73027" x="95" y="383" width="14.04" height="14"><title>Very Unfavorable 4%</title></rect>
    <rect fill="#fc8d59" x="109.04" y="383" width="28.08" height="14"><title>Somewhat Unfavorable 8%</title></rect>
    <rect fill="#fee090" x="137.12" y="383" width="80.73" height="14"><title>Don’t know 23%</title></rect>
    <rect fill="#e0f3f8" x="217.85" y="383" width="10.53" height="14"><title>Have not heard of them 3%</title></rect>
    <rect fill="#91bfdb" x="228.38" y="383" width="129.87" height="14"><title>Somewhat Favorable 37%</title></rect>
    <rect fill="#4575b4" x="358.25" y="383" width="87.75" height="14"><title>Very Favorable 25%</title></rect>
    <rect fill="#d73027" x="95" y="398" width="21.06" height="14"><title>Very Unfavorable 6%</title></rect>
    <rect fill="#fc8d59" x="116.06" y="398" width="45.63" height="14"><title>Somewhat Unfavorable 13%</title></rect>
    <rect fill="#fee090" x="161.69" y="398" width="182.52" height="14"><title>Don’t know 52%</title></rect>
    <rect fill="#e0f3f8" x="344.21" y="398" width="28.08" height="14"><title>Have not heard of them 8%</title></rect>
    <rect fill="#91bfdb" x="372.29" y="398" width="63.18" height="14"><title>Somewhat Favorable 18%</title></rect>
    <rect fill="#4575b4" x="435.47" y="398" width="10.53" height="14"><title>Very Favorable 3%</title></rect>
    <rect fill="#d73027" x="95" y="413" width="38.61" height="14"><title>Very Unfavorable 11%</title></rect>
    <rect fill="#fc8d59" x="133.61" y="413" width="49.14" height="14"><title>Somewhat Unfavorable 14%</title></rect>
    <rect fill="#fee090" x="182.75" y="413" width="136.89" height="14"><title>Don’t know 39%</title></rect>
    <rect fill="#e0f3f8" x="319.64" y="413" width="14.04" height="14"><title>Have not heard of them 4%</title></rect>
    <rect fill="#91bfdb" x="333.68" y="413" width="87.75" height="14"><title>Somewhat Favorable 25%</title></rect>
    <rect fill="#4575b4" x="421.43" y="413" width="24.57" height="14"><title>Very Favorable 7%</title></rect>
    <rect fill="#d73027" x="95" y="428" width="38.61" height="14"><title>Very Unfavorable 11%</title></rect>
    <rect fill="#fc8d59" x="133.61" y="428" width="42.12" height="14"><title>Somewhat Unfavorable 12%</title></rect>
    <rect fill="#fee090" x="175.73" y="428" width="161.46" height="14"><title>Don’t know 46%</title></rect>
    <rect fill="#e0f3f8" x="337.19" y="428" width="56.16" height="14"><title>Have not heard of them 16%</title></rect>
    <rect fill="#91bfdb" x="393.35" y="428" width="42.12" height="14"><title>Somewhat Favorable 12%</title></rect>
    <rect fill="#4575b4" x="435.47" y="428" width="10.53" height="14"><title>Very Favorable 3%</title></rect>
    <rect fill="#d73027" x="95" y="443" width="28.08" height="14"><title>Very Unfavorable 8%</title></rect>
    <rect fill="#fc8d59" x="123.08" y="443" width="38.61" height="14"><title>Somewhat Unfavorable 11%</title></rect>
    <rect fill="#fee090" x="161.69" y="443" width="164.97" height="14"><title>Don’t know 47%</title></rect>
    <rect fill="#e0f3f8" x="326.66" y="443" width="35.1" height="14"><title>Have not heard of them 10%</title></rect>
    <rect fill="#91bfdb" x="361.76" y="443" width="63.18" height="14"><title>Somewhat Favorable 18%</title></rect>
    <rect fill="#4575b4" x="424.94" y="443" width="21.06" height="14"><title>Very Favorable 6%</title></rect>
    <rect fill="#d73027" x="95" y="458" width="49.14" height="14"><title>Very Unfavorable 14%</title></rect>
    <rect fill="#fc8d59" x="144.14" y="458" width="56.16" height="14"><title>Somewhat Unfavorable 16%</title></rect>
    <rect fill="#fee090" x="200.3" y="458" width="129.87" height="14"><title>Don’t know 37%</title></rect>
    <rect fill="#e0f3f8" x="330.17" y="458" width="28.08" height="14"><title>Have not heard of them 8%</title></rect>
    <rect fill="#91bfdb" x="358.25" y="458" width="70.2" height="14"><title>Somewhat Favorable 20%</title></rect>
    <rect fill="#4575b4" x="428.45" y="458" width="17.55" height="14"><title>Very Favorable 5%</title></rect>
    <rect fill="#d73027" x="95" y="473" width="28.08" height="14"><title>Very Unfavorable 8%</title></rect>
    <rect fill="#fc8d59" x="123.08" y="473" width="31.59" height="14"><title>Somewhat Unfavorable 9%</title></rect>
    <rect fill="#fee090" x="154.67" y="473" width="77.22" height="14"><title>Don’t know 22%</title></rect>
    <rect fill="#e0f3f8" x="231.89" y="473" width="10.53" height="14"><title>Have not heard of them 3%</title></rect>
    <rect fill="#91bfdb" x="242.42" y="473" width="112.32" height="14"><title>Somewhat Favorable 32%</title></rect>
    <rect fill="#4575b4" x="354.74" y="473" width="91.26" height="14"><title>Very Favorable 26%</title></rect>
    <rect fill="#d73027" x="95" y="488" width="14.327" height="14"><title>Very Unfavorable 4%</title></rect>
    <rect fill="#fc8d59" x="109.327" y="488" width="35.816" height="14"><title>Somewhat Unfavorable 10%</title></rect>
    <rect fill="#fee090" x="145.143" y="488" width="100.286" height="14"><title>Don’t know 28%</title></rect>
    <rect fill="#e0f3f8" x="245.429" y="488" width="17.908" height="14"><title>Have not heard of them 5%</title></rect>
    <rect fill="#91bfdb" x="263.337" y="488" width="121.776" height="14"><title>Somewhat Favorable 34%</title></rect>
    <rect fill="#4575b4" x="385.112" y="488" width="60.888" height="14"><title>Very Favorable 17%</title></rect>
    <rect fill="#d73027" x="95" y="503" width="13.901" height="14"><title>Very Unfavorable 4%</title></rect>
    <rect fill="#fc8d59" x="108.901" y="503" width="24.327" height="14"><title>Somewhat Unfavorable 7%</title></rect>
    <rect fill="#fee090" x="133.228" y="503" width="86.881" height="14"><title>Don’t know 25%</title></rect>
    <rect fill="#e0f3f8" x="220.109" y="503" width="24.327" height="14"><title>Have not heard of them 7%</title></rect>
    <rect fill="#91bfdb" x="244.436" y="503" width="125.109" height="14"><title>Somewhat Favorable 36%</title></rect>
    <rect fill="#4575b4" x="369.545" y="503" width="76.455" height="14"><title>Very Favorable 22%</title></rect>
    <rect fill="#d73027" x="95" y="518" width="13.901" height="14"><title>Very Unfavorable 4%</title></rect>
    <rect fill="#fc8d59" x="108.901" y="518" width="34.752" height="14"><title>Somewhat Unfavorable 10%</title></rect>
    <rect fill="#fee090" x="143.653" y="518" width="41.703" height="14"><title>Don’t know 12%</title></rect>
    <rect fill="#e0f3f8" x="185.356" y="518" width="6.95" height="14"><title>Have not heard of them 2%</title></rect>
    <rect fill="#91bfdb" x="192.307" y="518" width="132.059" height="14"><title>Somewhat Favorable 38%</title></rect>
    <rect fill="#4575b4" x="324.366" y="518" width="121.634" height="14"><title>Very Favorable 35%</title></rect>
    <rect fill="#d73027" x="95" y="533" width="59.67" height="14"><title>Very Unfavorable 17%</title></rect>
    <rect fill="#fc8d59" x="154.67" y="533" width="63.18" height="14"><title>Somewhat Unfavorable 18%</title></rect>
    <rect fill="#fee090" x="217.85" y="533" width="73.71" height="14"><title>Don’t know 21%</title></rect>
    <rect fill="#e0f3f8" x="291.56" y="533" width="24.57" height="14"><title>Have not heard of them 7%</title></rect>
    <rect fill="#91bfdb" x="316.13" y="533" width="98.28" height="14"><title>Somewhat Favorable 28%</title></rect>
    <rect fill="#4575b4" x="414.41" y="533" width="31.59" height="14"><title>Very Favorable 9%</title></rect>
    <rect fill="#d73027" x="95" y="548" width="118.158" height="14"><title>Very Unfavorable 34%</title></rect>
    <rect fill="#fc8d59" x="213.158" y="548" width="79.931" height="14"><title>Somewhat Unfavorable 23%</title></rect>
    <rect fill="#fee090" x="293.089" y="548" width="48.653" height="14"><title>Don’t know 14%</title></rect>
    <rect fill="#e0f3f8" x="341.743" y="548" width="10.426" height="14"><title>Have not heard of them 3%</title></rect>
    <rect fill="#91bfdb" x="352.168" y="548" width="66.03" height="14"><title>Somewhat Favorable 19%</title></rect>
    <rect fill="#4575b4" x="418.198" y="548" width="27.802" height="14"><title>Very Favorable 8%</title></rect>
    <rect fill="#d73027" x="95" y="563" width="28.08" height="14"><title>Very Unfavorable 8%</title></rect>
    <rect fill="#fc8d59" x="123.08" y="563" width="77.22" height="14"><title>Somewhat Unfavorable 22%</title></rect>
    <rect fill="#fee090" x="200.3" y="563" width="87.75" height="14"><title>Don’t know 25%</title></rect>
    <rect fill="#e0f3f8" x="288.05" y="563" width="14.04" height="14"><title>Have not heard of them 4%</title></rect>
    <rect fill="#91bfdb" x="302.09" y="563" width="119.34" height="14"><title>Somewhat Favorable 34%</title></rect>
    <rect fill="#4575b4" x="421.43" y="563" width="24.57" height="14"><title>Very Favorable 7%</title></rect>
    <rect fill="#d73027" x="95" y="578" width="70.2" height="14"><title>Very Unfavorable 20%</title></rect>
    <rect fill="#fc8d59" x="165.2" y="578" width="42.12" height="14"><title>Somewhat Unfavorable 12%</title></rect>
    <rect fill="#fee090" x="207.32" y="578" width="63.18" height="14"><title>Don’t know 18%</title></rect>
    <rect fill="#e0f3f8" x="270.5" y="578" width="17.55" height="14"><title>Have not heard of them 5%</title></rect>
    <rect fill="#91bfdb" x="288.05" y="578" width="77.22" height="14"><title>Somewhat Favorable 22%</title></rect>
    <rect fill="#4575b4" x="365.27" y="578" width="80.73" height="14"><title>Very Favorable 23%</title></rect>
    <rect fill="#d73027" x="95" y="593" width="59.67" height="14"><title>Very Unfavorable 17%</title></rect>
    <rect fill="#fc8d59" x="154.67" y="593" width="49.14" height="14"><title>Somewhat Unfavorable 14%</title></rect>
    <rect fill="#fee090" x="203.81" y="593" width="42.12" height="14"><title>Don’t know 12%</title></rect>
    <rect fill="#e0f3f8" x="245.93" y="593" width="10.53" height="14"><title>Have not heard of them 3%</title></rect>
    <rect fill="#91bfdb" x="256.46" y="593" width="80.73" height="14"><title>Somewhat Favorable 23%</title></rect>
    <rect fill="#4575b4" x="337.19" y="593" width="108.81" height="14"><title>Very Favorable 31%</title></rect>
    <rect fill="#d73027" x="95" y="608" width="59.67" height="14"><title>Very Unfavorable 17%</title></rect>
    <rect fill="#fc8d59" x="154.67" y="608" width="94.77" height="14"><title>Somewhat Unfavorable 27%</title></rect>
    <rect fill="#fee090" x="249.44" y="608" width="38.61" height="14"><title>Don’t know 11%</title></rect>
    <rect fill="#e0f3f8" x="288.05" y="608" width="3.51" height="14"><title>Have not heard of them 1%</title></rect>
    <rect fill="#91bfdb" x="291.56" y="608" width="115.83" height="14"><title>Somewhat Favorable 33%</title></rect>
    <rect fill="#4575b4" x="407.39" y="608" width="38.61" height="14"><title>Very Favorable 11%</title></rect>
    <rect fill="#d73027" x="95" y="623" width="78" height="14"><title>Very Unfavorable 22%</title></rect>
    <rect fill="#fc8d59" x="173" y="623" width="70.909" height="14"><title>Somewhat Unfavorable 20%</title></rect>
    <rect fill="#fee090" x="243.909" y="623" width="35.455" height="14"><title>Don’t know 10%</title></rect>
    <rect fill="#e0f3f8" x="279.364" y="623" width="7.091" height="14"><title>Have not heard of them 2%</title></rect>
    <rect fill="#91bfdb" x="286.455" y="623" width="106.364" height="14"><title>Somewhat Favorable 30%</title></rect>
    <rect fill="#4575b4" x="392.818" y="623" width="53.182" height="14"><title>Very Favorable 15%</title></rect>
    <rect fill="#d73027" x="95" y="638" width="66.69" height="14"><title>Very Unfavorable 19%</title></rect>
    <rect fill="#fc8d59" x="161.69" y="638" width="84.24" height="14"><title>Somewhat Unfavorable 24%</title></rect>
    <rect fill="#fee090" x="245.93" y="638" width="38.61" height="14"><title>Don’t know 11%</title></rect>
    <rect fill="#e0f3f8" x="284.54" y="638" width="14.04" height="14"><title>Have not heard of them 4%</title></rect>
    <rect fill="#91bfdb" x="298.58" y="638" width="112.32" height="14"><title>Somewhat Favorable 32%</title></rect>
    <rect fill="#4575b4" x="410.9" y="638" width="35.1" height="14"><title>Very Favorable 10%</title></rect>
    <rect fill="#d73027" x="95" y="653" width="108.81" height="14"><title>Very Unfavorable 31%</title></rect>
    <rect fill="#fc8d59" x="203.81" y="653" width="35.1" height="14"><title>Somewhat Unfavorable 10%</title></rect>
    <rect fill="#fee090" x="238.91" y="653" width="14.04" height="14"><title>Don’t know 4%</title></rect>
    <rect fill="#e0f3f8" x="252.95" y="653" width="3.51" height="14"><title>Have not heard of them 1%</title></rect>
    <rect fill="#91bfdb" x="256.46" y="653" width="63.18" height="14"><title>Somewhat Favorable 18%</title></rect>
    <rect fill="#4575b4" x="319.64" y="653" width="126.36" height="14"><title>Very Favorable 36%</title></rect>
    <rect fill="#d73027" x="95" y="668" width="166.636" height="14"><title>Very Unfavorable 47%</title></rect>
    <rect fill="#fc8d59" x="261.636" y="668" width="24.818" height="14"><title>Somewhat Unfavorable 7%</title></rect>
    <rect fill="#fee090" x="286.455" y="668" width="17.727" height="14"><title>Don’t know 5%</title></rect>
    <rect fill="#e0f3f8" x="304.182" y="668" width="3.545" height="14"><title>Have not heard of them 1%</title></rect>
    <rect fill="#91bfdb" x="307.727" y="668" width="56.727" height="14"><title>Somewhat Favorable 16%</title></rect>
    <rect fill="#4575b4" x="364.455" y="668" width="81.545" height="14"><title>Very Favorable 23%</title></rect>
    <rect fill="#d73027" x="95" y="683" width="124.091" height="14"><title>Very Unfavorable 35%</title></rect>
    <rect fill="#fc8d59" x="219.091" y="683" width="31.909" height="14"><title>Somewhat Unfavorable 9%</title></rect>
    <rect fill="#fee090" x="251" y="683" width="21.273" height="14"><title>Don’t know 6%</title></rect>
    <rect fill="#e0f3f8" x="272.273" y="683" width="7.091" height="14"><title>Have not heard of them 2%</title></rect>
    <rect fill="#91bfdb" x="279.364" y="683" width="74.455" height="14"><title>Somewhat Favorable 21%</title></rect>
    <rect fill="#4575b4" x="353.818" y="683" width="92.182" height="14"><title>Very Favorable 26%</title></rect>
  </g>
  <g aria-label="tick" stroke="white" transform="translate(0.5,0)">
    <line x1="270.5" x2="270.5" y1="20" y2="700"></line>
  </g>
</svg>